Coordinates
version=1
nRows=7
nColumns=33
inDegrees=yes

Units are S.I. units (second, meters, Newtons, ...)
Angles are in degrees.

endheader
time	ground_thorax_rot_x	ground_thorax_rot_y	ground_thorax_rot_z	ground_thorax_tx	ground_thorax_ty	ground_thorax_tz	clav_prot_r	clav_elev_r	scapula_abduction_r	scapula_elevation_r	scapula_upward_rot_r	scapula_winging_r	shoulder_elv_r	plane_of_elev_r	axial_rot_r	elbow_flexion_r	pro_sup_r	wrist_flex_r	wrist_dev_r	clav_prot_l	clav_elev_l	scapula_abduction_l	scapula_elevation_l	scapula_upward_rot_l	scapula_winging_l	shoulder_elv_l	plane_of_elev_l	axial_rot_l	elbow_flexion_l	pro_sup_l	wrist_flex_l	wrist_dev_l
      2.42000000	     -0.61261461	      2.69172959	     10.69445764	     -0.10541178	      1.02917037	      0.01243809	      8.59711730	    -10.43134813	     15.11993094	     -3.30123281	      0.02770611	     -2.64493999	    -60.36025962	    -73.21466179	     81.87943838	    -60.03292094	   -136.73994609	     48.83804405	    -24.99999983	      9.69855778	     -0.29939253	    -12.19001063	    -22.68670545	    -37.50022547	     -1.94415715	     53.66598205	    -36.94733181	      0.67705691	     58.42832861	     26.99609536	     -4.47346840	    -24.99999983
      2.43000000	     -0.61947139	      2.69265123	     10.78007647	     -0.10548425	      1.02881944	      0.01238411	      8.58194264	    -10.45976649	     15.10128246	     -3.33513428	      0.04745344	     -2.62936177	    -60.36363189	    -73.15305936	     81.92554124	    -60.05959808	   -136.74708127	     48.86984945	    -24.99999983	      9.68103945	     -0.35444284	    -12.16161590	    -22.62952721	    -37.49241425	     -1.95038208	     53.64440203	    -36.88891436	      0.66152374	     58.44129650	     26.99001573	     -4.48033321	    -24.99999983
      2.44000000	     -0.64094602	      2.66336855	     10.87652164	     -0.10554016	      1.02844465	      0.01234701	      8.57085066	    -10.47285263	     15.09624648	     -3.35589778	      0.06804202	     -2.62249034	    -60.35650401	    -73.12588344	     81.93841307	    -60.08161104	   -136.75089622	     48.88242520	    -24.99999983	      9.67601367	     -0.39110651	    -12.14985440	    -22.57783092	    -37.45815150	     -1.93973195	     53.65341398	    -36.81509976	      0.65880604	     58.46630820	     26.98608589	     -4.48537760	    -24.99999983
      2.45000000	     -0.61377543	      2.76954263	     10.72570508	     -0.10544294	      1.02847860	      0.01255236	      8.47055883	    -10.51827454	     14.96625217	     -3.43545737	      0.15367887	     -2.55549207	    -60.04113579	    -72.89741995	     82.03644335	    -60.28490720	   -136.89155834	     49.25998672	    -24.99999983	      9.63717697	     -0.62646839	    -12.07661557	    -22.28765453	    -37.33619864	     -1.91725217	     53.81562575	    -36.62177299	      0.69038542	     58.28000782	     26.96629804	     -4.61818297	    -24.99999983
      2.46000000	     -0.62434043	      2.72406921	     10.83511092	     -0.10542978	      1.02823478	      0.01257019	      8.46231735	    -10.53476031	     14.96508906	     -3.46102552	      0.17932770	     -2.54830895	    -60.02795205	    -72.89067803	     82.04547051	    -60.29853964	   -136.89489930	     49.27198511	    -24.99999983	      9.63776919	     -0.65745058	    -12.07337250	    -22.23804554	    -37.29481801	     -1.90247781	     53.83078011	    -36.53831211	      0.68129940	     58.32279111	     26.96262312	     -4.62555230	    -24.99999983
      2.47000000	     -0.62747759	      2.71035315	     10.94231641	     -0.10547860	      1.02815992	      0.01250295	      8.45207432	    -10.57048768	     14.96910492	     -3.51032798	      0.22002999	     -2.53889654	    -60.00203742	    -72.88845757	     82.07236621	    -60.33863127	   -136.90248102	     49.30782695	    -24.99999983	      9.63458117	     -0.70333177	    -12.06598187	    -22.17937615	    -37.26844723	     -1.89676650	     53.83054114	    -36.44075617	      0.65487559	     58.37707759	     26.96085694	     -4.64185192	    -24.99999983
      2.48000000	     -0.64990082	      2.65367805	     11.01453780	     -0.10534606	      1.02796280	      0.01252011	      8.44744614	    -10.57223363	     14.96843842	     -3.51936026	      0.23706419	     -2.53612702	    -59.98538757	    -72.89661352	     82.07269931	    -60.35930053	   -136.90636520	     49.32217865	    -24.99999983	      9.64292122	     -0.72613829	    -12.07384612	    -22.13385884	    -37.21907305	     -1.87826171	     53.86475094	    -36.36533650	      0.65311456	     58.41135293	     26.95786070	     -4.65081175	    -24.99999983
